<svg xmlns="http://www.w3.org/2000/svg" width="22" height="22" viewBox="0 0 22 22">
  <defs>
    <style type="text/css" id="current-color-scheme">
      .ColorScheme-Text { color:#232629; }
    </style>
  </defs>
  <path class="ColorScheme-Text" fill="currentColor" fill-rule="evenodd" d="
    M 11 2.2
    L 11.9 3.6
    C 12.3 4.2 12.2 4.9 11.75 5.4
    L 11.75 6.3
    C 14.4 6.9 16.4 9.2 16.4 12
    L 16.4 12.6
    L 5.6 12.6
    L 5.6 12
    C 5.6 9.2 7.6 6.9 10.25 6.3
    L 10.25 5.4
    C 9.8 4.9 9.7 4.2 10.1 3.6
    Z
    M 2 8.2 L 2.7 6.8 L 3.4 8.2 L 3.4 19.8 L 2 19.8 Z
    M 18.6 8.2 L 19.3 6.8 L 20 8.2 L 20 19.8 L 18.6 19.8 Z
    M 4.4 13.8
    L 17.6 13.8
    L 17.6 19.8
    L 12.9 19.8
    L 12.9 17.3
    C 12.9 16.25 12.05 15.4 11 15.4
    C 9.95 15.4 9.1 16.25 9.1 17.3
    L 9.1 19.8
    L 4.4 19.8
    Z"/>
</svg>
